<?xml version="1.0" encoding="utf-8"?>
<!DOCTYPE svg PUBLIC "-//W3C//DTD SVG 1.1//EN" "http://www.w3.org/Graphics/SVG/1.1/DTD/svg11.dtd">
<svg xmlns="http://www.w3.org/2000/svg" xmlns:xlink="http://www.w3.org/1999/xlink" version="1.1" baseProfile="full" width="200" height="100" viewBox="0 0 200.00 100.00" enable-background="new 0 0 200.00 100.00" xml:space="preserve">
	<path fill="#F98E55" fill-opacity="1" stroke-linejoin="round" stroke="#F98E55" stroke-opacity="1" d="M 16.1667,41.5833L 24.6667,41.5833L 28.1667,33.25L 32.3333,41.25L 40.3333,41.25L 34.3333,48.25L 35.8333,57.4167L 28.3333,52.25L 20.3333,57.0833L 22.3333,48.4167L 16.1667,41.5833 Z "/>
	<path fill="#F98E55" fill-opacity="1" stroke-linejoin="round" stroke="#F98E55" stroke-opacity="1" d="M 46.4167,41.9167L 54.9167,41.9167L 58.4167,33.5833L 62.5833,41.5833L 70.5833,41.5833L 64.5833,48.5833L 66.0833,57.75L 58.5833,52.5833L 50.5833,57.4167L 52.5833,48.75L 46.4167,41.9167 Z "/>
	<path fill="#F98E55" fill-opacity="1" stroke-linejoin="round" stroke="#F98E55" stroke-opacity="1" d="M 76.0833,41.5833L 84.5833,41.5833L 88.0833,33.25L 92.25,41.25L 100.25,41.25L 94.25,48.25L 95.75,57.4167L 88.25,52.25L 80.25,57.0833L 82.25,48.4167L 76.0833,41.5833 Z "/>
	<path fill="none" stroke-linejoin="round" stroke="#F98E55" stroke-opacity="1" d="M 106.417,40.75L 114.917,40.75L 118.417,32.4167L 122.583,40.4167L 130.583,40.4167L 124.583,47.4167L 126.083,56.5833L 118.583,51.4167L 110.583,56.25L 112.583,47.5833L 106.417,40.75 Z "/>
	<path fill="none" stroke-linejoin="round" stroke="#F98E55" stroke-opacity="1" d="M 136.917,40.5833L 145.417,40.5833L 148.917,32.25L 153.083,40.25L 161.083,40.25L 155.083,47.25L 156.583,56.4167L 149.083,51.25L 141.083,56.0833L 143.083,47.4167L 136.917,40.5833 Z "/>
</svg>
