<?xml version="1.0" encoding="utf-8"?>
<!DOCTYPE svg PUBLIC "-//W3C//DTD SVG 1.1//EN" "http://www.w3.org/Graphics/SVG/1.1/DTD/svg11.dtd">
<svg xmlns="http://www.w3.org/2000/svg" xmlns:xlink="http://www.w3.org/1999/xlink" version="1.1" baseProfile="full" width="49.9937" height="49.9937" viewBox="0 0 49.99 49.99" enable-background="new 0 0 49.99 49.99" xml:space="preserve">
	<rect x="0" y="0" fill="#64B120" fill-opacity="1" stroke-width="0.2" stroke-linejoin="round" stroke="#64B120" stroke-opacity="1" width="49.9937" height="49.9937"/>
	<path fill="#FFFFFF" fill-opacity="1" stroke-width="0.2" stroke-linejoin="round" stroke="#FFFFFF" stroke-opacity="1" d="M 12.8317,14.8731L 12.8317,16.7062L 15.6647,16.8729L 16.7479,23.872L 17.6644,28.8506L 29.9129,28.8506L 29.538,29.9755L 17.5395,29.9755L 16.1646,29.913L 16.1021,31.7252L 30.3504,31.6627L 31.4752,28.1007L 32.9125,23.7887L 33.2667,20.4142L 30.4753,27.4758L 28.8297,27.7882L 29.6629,22.4764L 29.965,21.2995L 32.4647,22.3306L 33.3083,20.3309L 28.4964,19.7059L 27.9965,27.7882L 26.33,27.7882L 26.2675,20.5808L 29.4651,20.9558L 28.5589,19.7372L 25.101,19.4976L 25.3093,27.8299L 23.5804,27.8715L 23.3512,20.4142L 25.7259,20.5392L 25.2885,19.4768L 22.1847,19.1227L 22.2617,19.722L 22.643,27.8299L 20.914,27.8715L 20.7266,19.9767L 22.8513,20.4142L 22.1639,19.1018L 19.6642,18.706L 20.06,27.9549L 18.6018,27.7257L 17.8519,19.7892L 19.8933,19.9559L 19.8517,18.7894L 17.3312,17.7894L 16.8312,15.7064L 14.9148,15.1231L 12.8317,14.8731 Z "/>
	<path fill="#FFFFFF" fill-opacity="1" stroke-width="0.999875" stroke-linejoin="round" d="M 19.3726,32.9542L 19.3726,32.9542C 20.1779,32.9542 20.8307,33.607 20.8307,34.4124L 20.8307,34.4124C 20.8307,35.2177 20.1779,35.8705 19.3726,35.8705L 19.3726,35.8705C 18.5673,35.8705 17.9144,35.2177 17.9144,34.4124L 17.9144,34.4124C 17.9144,33.607 18.5673,32.9542 19.3726,32.9542 Z "/>
	<path fill="#FFFFFF" fill-opacity="1" stroke-width="0.999875" stroke-linejoin="round" d="M 27.4132,33.1209L 27.4132,33.1209C 28.2186,33.1209 28.8714,33.7737 28.8714,34.579L 28.8714,34.579C 28.8714,35.3843 28.2186,36.0372 27.4132,36.0372L 27.4132,36.0372C 26.6079,36.0372 25.9551,35.3843 25.9551,34.579L 25.9551,34.579C 25.9551,33.7737 26.6079,33.1209 27.4132,33.1209 Z "/>
</svg>
