<?xml version="1.0" encoding="utf-8"?>
<!DOCTYPE svg PUBLIC "-//W3C//DTD SVG 1.1//EN" "http://www.w3.org/Graphics/SVG/1.1/DTD/svg11.dtd">
<svg xmlns="http://www.w3.org/2000/svg" xmlns:xlink="http://www.w3.org/1999/xlink" version="1.1" baseProfile="full" width="99.9875" height="99.9875" viewBox="0 0 99.99 99.99" enable-background="new 0 0 99.99 99.99" xml:space="preserve">
	<ellipse fill="#64B120" fill-opacity="1" stroke-width="0.999875" stroke-linejoin="round" cx="50.8687" cy="51.3686" rx="42.2447" ry="42.7447"/>
	<path fill="#FFFFFF" fill-opacity="1" stroke-width="0.999875" stroke-linejoin="round" d="M 24.4641,59.68L 21.6216,72.4284L 27.6112,64.1927L 19.5913,67.6901L 26.9006,70.1721L 24.4641,59.68 Z "/>
	<path fill="#FFFFFF" fill-opacity="1" stroke-width="0.999875" stroke-linejoin="round" d="M 35.3497,70.3245L 38.5993,61.8256L 40.3491,69.3247L 34.7665,64.9085L 41.0157,64.5753L 35.3497,70.3245 Z "/>
	<path fill="#FFFFFF" fill-opacity="1" stroke-width="0.999875" stroke-linejoin="round" d="M 50.4312,62.0756L 48.0982,68.908L 53.7641,66.4917L 46.8483,64.0753L 52.5143,69.9079L 50.4312,62.0756 Z "/>
	<path fill="#FFFFFF" fill-opacity="1" stroke-width="0.999875" stroke-linejoin="round" d="M 57.9303,64.9085L 60.5966,59.1593L 62.9296,65.8251L 56.8471,59.9925L 63.9295,62.1589L 57.9303,64.9085 Z "/>
	<path fill="#FFFFFF" fill-opacity="1" stroke-width="0.999875" stroke-linejoin="round" d="M 65.1794,58.4094L 67.2624,52.6601L 69.7621,58.576L 64.0128,54.1599L 70.762,55.3264L 65.1794,58.4094 Z "/>
	<path fill="#FFFFFF" fill-opacity="1" stroke-width="0.999875" stroke-linejoin="round" d="M 71.012,48.8272L 73.4283,42.2447L 74.9281,47.5774L 70.3454,45.161L 76.178,43.2446L 71.012,48.8272 Z "/>
	<path fill="#FFFFFF" fill-opacity="1" stroke-width="0.999875" stroke-linejoin="round" d="M 77.2612,37.8286L 79.3442,31.3294L 81.0107,36.0788L 76.0947,34.1624L 81.7606,33.1625L 77.2612,37.8286 Z "/>
	<path fill="#FFFFFF" fill-opacity="1" stroke-width="0.999875" stroke-linejoin="round" d="M 65.5126,39.0784L 67.5124,33.5791L 69.0122,38.9118L 64.4294,36.0788L 69.6788,35.6622L 65.5126,39.0784 Z "/>
	<path fill="#FFFFFF" fill-opacity="1" stroke-width="0.999875" stroke-linejoin="round" d="M 53.6808,37.162L 55.4306,31.996L 57.347,38.3285L 52.3476,33.4958L 58.2635,34.9956L 53.6808,37.162 Z "/>
	<path fill="#FFFFFF" fill-opacity="1" stroke-width="0.999875" stroke-linejoin="round" d="M 41.9323,37.8286L 43.5154,31.9127L 47.015,38.7452L 40.1825,33.9958L 47.7649,35.4956L 41.9323,37.8286 Z "/>
	<path fill="#FFFFFF" fill-opacity="1" stroke-width="0.999875" stroke-linejoin="round" d="M 31.8502,44.6611L 34.5165,38.4119L 37.1828,44.9111L 30.1837,41.0782L 37.8494,41.0782L 31.8502,44.6611 Z "/>
	<path fill="#FFFFFF" fill-opacity="1" stroke-width="0.999875" stroke-linejoin="round" d="M 25.6843,55.4097L 29.4338,49.2438L 30.1837,54.9098L 25.1843,51.4102L 32.7667,51.9935L 25.6843,55.4097 Z "/>
	<path fill="#FFFFFF" fill-opacity="1" stroke-width="0.999875" stroke-linejoin="round" d="M 20.0392,72.9284L 21.9556,71.9285L 22.9138,71.0119L 25.9134,66.9291L 34.9019,58.4302L 36.9537,56.9304L 39.9117,54.5973L 40.9636,53.9932L 42.9946,52.8892L 45.0256,51.681L 47.2753,50.6812L 48.9626,49.8688L 51.1499,48.8689L 53.962,47.8065L 54.7119,47.4316L 57.0866,46.1192L 54.8994,46.6192L 52.0247,47.619L 47.4003,49.3688L 43.4008,51.4311L 39.9638,53.2433C 39.9638,53.2433 37.6838,54.4925 36.6517,55.1806C 35.7143,55.8055 33.4646,57.4303 33.4646,57.4303L 31.2773,59.1176L 28.7152,61.0549L 25.903,63.6795L 22.0285,67.4915L 20.1537,71.0536"/>
</svg>
