<?xml version="1.0" encoding="utf-8"?>
<!DOCTYPE svg PUBLIC "-//W3C//DTD SVG 1.1//EN" "http://www.w3.org/Graphics/SVG/1.1/DTD/svg11.dtd">
<svg xmlns="http://www.w3.org/2000/svg" xmlns:xlink="http://www.w3.org/1999/xlink" version="1.1" baseProfile="full" width="99.9875" height="99.9875" viewBox="0 0 99.99 99.99" enable-background="new 0 0 99.99 99.99" xml:space="preserve">
	<path fill="#64B120" fill-opacity="1" stroke-width="0.999875" stroke-linejoin="round" d="M 47.2441,36.1205L 45.4943,36.1205L 42.9946,33.1209L 40.9949,30.8711L 37.7453,28.8714L 34.2457,27.3716L 30.7462,26.1217L 24.4969,26.1217L 21.2473,26.8716L 18.7477,28.3715L 16.248,30.3712L 14.2482,32.121L 12.2485,34.1207L 10.4987,36.8704L 8.99887,39.87L 7.25851,44.843L 7.42516,52.1754L 8.29063,59.076L 9.49881,62.8671L 10.4987,65.1169L 11.4986,67.3666L 12.4984,69.8663L 14.092,72.7576L 15.0918,75.0073L 16.7479,78.3652L 18.7477,81.1149L 21.4973,84.6144L 24.423,87.8376L 27.4966,90.1137L 29.7046,91.5302L 32.246,92.6134L 41.1263,93.2117L 44.2028,92.1551L 45.9942,90.8636L 48.2023,88.7806L 49.5771,88.0307L 51.9518,88.1556L 54.3746,90.837L 57.3742,91.5869L 66.0815,91.337L 69.4496,90.1554L 71.1642,89.3372L 73.4492,88.1556L 75.3239,86.7808L 76.6154,85.9059L 78.6152,83.5312L 80.115,81.5315L 81.9897,78.7818L 83.5897,75.9014L 84.8395,73.5892L 85.7457,70.9645L 87.1205,68.5273L 87.9151,65.5071L 89.2483,61.5076L 89.9148,57.6747L 90.7481,50.8422L 90.3637,44.0362L 89.4888,40.1616L 88.364,36.3288L 86.3642,32.6626L 83.2813,29.4963L 79.9483,27.1633L 77.8653,25.9759L 74.2501,25.1788L 67.1166,24.8302L 63.5337,26.1634L 61.6173,27.1633L 59.8675,28.4964L 57.9511,30.8295L 55.618,32.4959L 53.6183,33.8291L 52.0352,35.1623L 50.452,35.9955L 47.2441,36.1205 Z "/>
	<path fill="#64B120" fill-opacity="1" stroke-width="0.999875" stroke-linejoin="round" d="M 49.5667,31.0013L 49.5199,28.0173L 50.0771,11.7902L 51.3269,6.54086L 52.5351,4.23906L 53.9412,3.05171L 55.0348,5.11396L 54.3786,11.2382L 53.836,13.0136L 53.0663,17.6436L 51.8268,25.5385L 51.3269,31.7877L 49.5667,31.0013 Z "/>
	<path fill="#64B120" fill-opacity="1" stroke-width="0.999875" stroke-linejoin="round" d="M 27.8403,2.84858L 28.7568,6.1815L 29.5484,9.01447L 30.5066,11.0142L 31.4648,13.014L 32.4647,15.0554L 33.4646,16.3885L 34.1728,17.4717L 35.131,18.6383L 36.5475,19.8881L 38.2973,21.3046L 40.547,21.9712L 42.5468,21.9712L 43.63,21.5546L 44.4632,20.9713L 45.6297,20.0131L 46.463,19.0132L 47.1712,16.0969L 46.5463,14.0555L 44.5882,11.8891L 43.5883,10.8059L 42.9217,10.0977L 41.6719,9.09779L 40.3387,7.93127L 38.7139,7.01472L 36.8808,6.13983L 34.6311,5.05664L 32.3397,4.14008L 27.8403,2.84858 Z "/>
	<text transform="matrix(0.4810516834259033 0.0000000000000000 0.0000000000000000 1.0000000000000000 21.00 76.00)" xml:space="preserve">
		<tspan style=" font-family:MV Boli; font-size:34.048252pt;" letter-spacing="0.00em" fill="#FFFFFF" fill-opacity="1" stroke-width="0.999875" stroke-linejoin="round">RAW</tspan>
	</text>
</svg>
