<?xml version="1.0" encoding="utf-8"?>
<!DOCTYPE svg PUBLIC "-//W3C//DTD SVG 1.1//EN" "http://www.w3.org/Graphics/SVG/1.1/DTD/svg11.dtd">
<svg xmlns="http://www.w3.org/2000/svg" xmlns:xlink="http://www.w3.org/1999/xlink" version="1.1" baseProfile="full" width="52" height="50" viewBox="0 0 52.00 50.00" enable-background="new 0 0 52.00 50.00" xml:space="preserve">
	<ellipse fill="#FFFFFF" fill-opacity="1" stroke-width="0.2" stroke-linejoin="round" cx="26.625" cy="24.125" rx="19.8125" ry="20.1875"/>
	<path fill="#64B120" fill-opacity="1" stroke-width="0.2" stroke-linejoin="round" d="M 12.1156,33.5756L 12.7982,34.1589L 13.0754,34.4206L 13.9926,35.0263L 14.8457,35.5198L 15.4856,35.6395L 16.6942,35.9236L 16.7795,35.9685L 18.2584,36.3125L 24.3158,36.3125L 25.5813,36.0283L 26.5127,35.9087L 27.1383,35.5498L 27.9915,35.2506L 28.674,35.0712L 29.5271,34.6524L 30.6647,33.8747L 32.9479,31.8854L 34.1911,30.2255L 35.1146,28.9688L 35.6201,28.0869L 35.9896,27.4271L 36.3595,26.4717L 36.9283,25.2154L 37.0989,24.7967L 37.3691,23.4806L 38.009,20.6091L 38.009,18.276L 38.0516,17.962L 38.6915,17.3338L 39.374,16.5262L 40.0566,15.8083L 40.3125,15.2699L 39.4167,15.4943L 38.1796,15.6289L 38.6488,14.8661L 39.374,14.1931L 39.8006,12.7574L 39.8433,12.0844L 38.7768,12.7574L 37.3265,13.4753L 36.6013,13.8342L 36.0041,13.5201L 34.6817,12.7125L 33.6792,11.9797L 31.1197,11.9199L 28.5602,12.6976L 27.0814,14.3726L 26.4487,15.584L 26.2354,16.9749L 25.9795,19.1285L 25.5102,19.5772L 24.9557,19.3528L 23.1214,19.1734L 21.671,18.5004L 20.9885,18.4106L 19.6234,17.6928L 18.8556,16.9749L 17.5332,16.3916L 16.1681,14.9559L 14.8457,14.1483L 14.2059,13.3855L 13.6087,12.9369L 13.1821,14.8213L 13.1821,17.6479L 13.438,18.3658L 14.8031,20.5194L 15.315,21.1026L 14.8884,21.3718L 14.2485,21.327L 13.0896,20.5343L 13.5234,22.8076L 13.9997,23.346L 14.1632,24.1536L 14.6822,25.021L 15.251,25.5594L 15.9904,26.2773L 16.8933,26.4418L 17.5332,26.6213L 15.315,27.1073L 15.059,27.3765L 15.9762,28.6552L 16.5734,29.4628L 17.3625,30.1807L 18.2157,30.5247L 20.2633,31.422L 16.8933,32.8129L 16.2108,33.4859L 12.1156,33.5756 Z "/>
	<rect x="214.375" y="-3.75" fill="#4FC6F9" fill-opacity="1" stroke-width="0.2" stroke-linejoin="round" width="54.4739" height="52.3077"/>
</svg>
