<?xml version="1.0" encoding="utf-8"?>
<!DOCTYPE svg PUBLIC "-//W3C//DTD SVG 1.1//EN" "http://www.w3.org/Graphics/SVG/1.1/DTD/svg11.dtd">
<svg xmlns="http://www.w3.org/2000/svg" xmlns:xlink="http://www.w3.org/1999/xlink" version="1.1" baseProfile="full" width="99.9875" height="99.9875" viewBox="0 0 99.99 99.99" enable-background="new 0 0 99.99 99.99" xml:space="preserve">
	<path fill="#64B120" fill-opacity="1" stroke-width="0.999875" stroke-linejoin="round" d="M 18.8251,4.68555L 18.3862,7.17502L 17.5712,10.6848L 17.0697,13.7456L 16.3174,18.643L 15.0635,22.5609L 14.0604,26.1114L 13.3708,30.0701L 12.6185,33.988L 12.117,40.477L 11.9916,45.6192L 12.117,50.3941L 12.2423,54.5569L 12.5349,58.2299L 13.2454,62.8823L 14.7918,68.1062L 15.9621,71.0446L 17.1324,74.1462L 18.5534,76.2684L 19.3893,77.7376L 20.5596,79.4517L 21.5626,80.8393L 22.5657,82.2269L 23.736,83.5328L 24.6555,85.0428L 25.9093,86.5529L 27.3303,87.7772L 28.6678,88.8383L 30.5486,90.0626L 31.7606,91.0421L 32.9309,91.6951L 34.4355,92.5929L 35.355,93.0826L 37.194,93.8581L 38.7822,94.5518L 39.0329,94.6335L 43.4632,95.5721L 45.4694,95.8578L 47.4755,96.0619L 49.8578,96.3067L 51.2371,96.5108L 55.9181,96.674L 59.5125,96.2659L 63.3994,95.5721L 66.6594,94.4702L 69.0417,93.4908L 71.1733,93.001L 72.4271,92.144L 74.0571,91.287L 75.6871,90.4299L 77.4007,89.1648L 78.8218,87.6956L 80.3264,86.2264L 81.3295,85.0836L 82.2072,84.1858L 83.5864,82.5942L 85.2582,80.5128L 85.9687,78.7987L 86.9718,77.3295L 87.8495,75.5338L 88.6018,73.5341L 89.4377,71.2895L 89.8557,69.3713L 90.2318,67.0451L 90.1064,64.7188L 89.981,59.0869L 89.8557,56.3934L 89.1033,54.0671L 88.351,51.0063L 87.348,48.8025L 86.0941,46.3538L 84.7149,43.5378L 83.9626,42.8032L 82.8341,41.0891L 81.4549,39.3751L 80.7443,38.6405L 80.0756,37.661L 79.1979,36.5591L 78.571,36.0286L 77.15,34.3961L 76.1887,33.131L 74.4333,31.2945L 72.6779,29.7028L 70.5464,28.356L 68.7701,27.0909L 66.7848,25.9074L 65.134,24.5198L 62.3963,22.7241L 59.3871,21.1325L 57.2347,19.9897L 55.2494,18.8062L 53.4731,17.9083L 51.9685,16.9289L 50.1086,15.7454L 48.5413,15.0924L 46.0963,14.2762L 44.0901,13.2967L 41.9586,12.1948L 39.4509,11.4602L 37.0686,10.6032L 34.8116,9.74613L 32.8143,8.88331L 31.3401,8.47316L 28.9186,7.66476L 26.7334,6.89119L 23.7778,5.82825L 21.4509,5.19203L 18.8251,4.68555 Z "/>
	<text transform="matrix(0.3215366112269980 0.0000000000000000 0.0000000000000000 0.9999999403953552 19.00 80.00)" xml:space="preserve">
		<tspan style=" font-family:MV Boli; font-size:39.999966pt;" letter-spacing="0.00em" fill="#FFFFFF" fill-opacity="1" stroke-width="0.999875" stroke-linejoin="round">VEGAN</tspan>
	</text>
</svg>
