<?xml version="1.0" encoding="utf-8"?>
<!DOCTYPE svg PUBLIC "-//W3C//DTD SVG 1.1//EN" "http://www.w3.org/Graphics/SVG/1.1/DTD/svg11.dtd">
<svg xmlns="http://www.w3.org/2000/svg" xmlns:xlink="http://www.w3.org/1999/xlink" version="1.1" baseProfile="full" width="49.9937" height="49.9937" viewBox="0 0 49.99 49.99" enable-background="new 0 0 49.99 49.99" xml:space="preserve">
	<ellipse fill="#64B120" fill-opacity="1" stroke-width="0.2" stroke-linejoin="round" cx="26.028" cy="24.1532" rx="20.2475" ry="20.1225"/>
	<path fill="#FFFFFF" fill-opacity="1" stroke-width="0.2" stroke-linejoin="round" d="M 8.62392,15.623L 9.43632,17.9353L 9.99875,18.9976L 10.3112,19.935L 10.9986,21.6848L 11.811,22.9971L 12.6859,24.3095L 13.4463,25.6114L 14.1962,26.9446L 14.6544,27.7778L 15.2794,28.4027L 16.0293,29.2359L 16.6854,29.8088L 17.0604,30.3087L 17.9353,31.1836L 18.8726,31.9335L 19.7475,32.5584L 20.6849,32.9334L 21.4348,33.3083L 22.4347,33.6833L 24.1845,33.8708L 26.6217,33.8708L 27.684,33.5583L 27.9965,32.4334L 28.184,31.5586L 28.5589,30.5587L 29.3088,29.4338L 30.0587,29.0589L 30.8086,29.5588L 31.6835,30.4337L 32.6834,31.4336L 33.5583,32.1835L 34.1832,32.9334L 35.0581,33.4333L 36.0997,33.7666L 38.4327,34.0582L 40.3075,33.9333L 41.1823,33.6833L 41.6823,32.6834L 41.5573,31.3086L 40.3075,30.1837L 39.5576,29.1838L 38.3077,28.184L 37.4328,27.3091L 36.5579,26.4342L 36.183,25.6843L 36.6829,24.8094L 37.4328,23.6845L 38.4952,22.2472L 39.3076,21.1849L 40.0575,20.06L 40.5574,19.3101L 41.1928,18.2373L 41.9323,16.8104L 41.4323,15.9355L 37.8078,15.8105L 34.5582,15.9355L 33.8083,17.2478L 33.2458,18.4977L 32.6834,19.685L 32.3085,20.9349L 31.8085,22.1847L 30.6628,23.5804L 29.4338,24.0595L 28.4339,23.9345L 27.5591,23.3096L 27.684,15.0606L 20.4349,15.0606L 20.5599,16.1855L 21.5598,16.3105L 21.7473,16.9354L 21.6848,23.1221L 21.6223,23.747L 20.6849,24.247L 19.685,23.9345L 18.9768,23.3513L 18.1852,22.3097L 17.6645,21.3515L 17.1853,20.5599L 16.4354,18.9351L 15.998,17.9353L 15.6855,16.6854L 15.9355,15.6855L 8.62392,15.623 Z "/>
</svg>
